<svg width="26" height="30" viewBox="0 0 26 30" fill="none" xmlns="http://www.w3.org/2000/svg">
<path d="M9.28571 1.875V3.75H16.7143V1.875C16.7143 0.839648 17.5442 0 18.5714 0C19.5987 0 20.4286 0.839648 20.4286 1.875V3.75H23.2143C24.7522 3.75 26 5.00918 26 6.5625V9.375H0V6.5625C0 5.00918 1.24719 3.75 2.78571 3.75H5.57143V1.875C5.57143 0.839648 6.40134 0 7.42857 0C8.4558 0 9.28571 0.839648 9.28571 1.875ZM0 11.25H26V27.1875C26 28.7402 24.7522 30 23.2143 30H2.78571C1.24719 30 0 28.7402 0 27.1875V11.25ZM3.71429 17.8125C3.71429 18.3281 4.12982 18.75 4.64286 18.75H6.5C7.01071 18.75 7.42857 18.3281 7.42857 17.8125V15.9375C7.42857 15.4219 7.01071 15 6.5 15H4.64286C4.12982 15 3.71429 15.4219 3.71429 15.9375V17.8125ZM11.1429 17.8125C11.1429 18.3281 11.5607 18.75 12.0714 18.75H13.9286C14.4393 18.75 14.8571 18.3281 14.8571 17.8125V15.9375C14.8571 15.4219 14.4393 15 13.9286 15H12.0714C11.5607 15 11.1429 15.4219 11.1429 15.9375V17.8125ZM19.5 15C18.9893 15 18.5714 15.4219 18.5714 15.9375V17.8125C18.5714 18.3281 18.9893 18.75 19.5 18.75H21.3571C21.8679 18.75 22.2857 18.3281 22.2857 17.8125V15.9375C22.2857 15.4219 21.8679 15 21.3571 15H19.5ZM3.71429 25.3125C3.71429 25.8281 4.12982 26.25 4.64286 26.25H6.5C7.01071 26.25 7.42857 25.8281 7.42857 25.3125V23.4375C7.42857 22.9219 7.01071 22.5 6.5 22.5H4.64286C4.12982 22.5 3.71429 22.9219 3.71429 23.4375V25.3125ZM12.0714 22.5C11.5607 22.5 11.1429 22.9219 11.1429 23.4375V25.3125C11.1429 25.8281 11.5607 26.25 12.0714 26.25H13.9286C14.4393 26.25 14.8571 25.8281 14.8571 25.3125V23.4375C14.8571 22.9219 14.4393 22.5 13.9286 22.5H12.0714ZM18.5714 25.3125C18.5714 25.8281 18.9893 26.25 19.5 26.25H21.3571C21.8679 26.25 22.2857 25.8281 22.2857 25.3125V23.4375C22.2857 22.9219 21.8679 22.5 21.3571 22.5H19.5C18.9893 22.5 18.5714 22.9219 18.5714 23.4375V25.3125Z" fill="white"/>
</svg>
