<svg width="32" height="32" viewBox="0 0 32 32" fill="none" xmlns="http://www.w3.org/2000/svg">
<path d="M13.7143 2.28571C13.7143 1.02357 14.7357 0 16 0H20.5714C21.8357 0 22.8571 1.02357 22.8571 2.28571V6.85714C22.8571 8.12143 21.8357 9.14286 20.5714 9.14286H16C14.7357 9.14286 13.7143 8.12143 13.7143 6.85714V2.28571ZM9.86429 10.15C10.9571 9.57857 12.2929 9.95714 12.9857 11.05L15.2714 15.0071C15.9 16.1 15.5286 17.4357 14.4357 18.1286L10.4786 20.4143C9.38571 21.0429 7.98571 20.6714 7.29286 19.5786L5.06857 15.6214C4.43714 14.5286 4.81214 13.1286 5.905 12.4357L9.86429 10.15ZM25.1429 11.4286C26.4071 11.4286 27.4286 12.45 27.4286 13.7143V18.2857C27.4286 19.55 26.4071 20.5714 25.1429 20.5714H20.5714C19.3071 20.5714 18.2857 19.55 18.2857 18.2857V13.7143C18.2857 12.45 19.3071 11.4286 20.5714 11.4286H25.1429ZM29.7143 22.8571C30.9786 22.8571 32 23.8786 32 25.1429V29.7143C32 30.9786 30.9786 32 29.7143 32H25.1429C23.8786 32 22.8571 30.9786 22.8571 29.7143V25.1429C22.8571 23.8786 23.8786 22.8571 25.1429 22.8571H29.7143ZM11.4286 25.1429C11.4286 23.8786 12.45 22.8571 13.7143 22.8571H18.2857C19.55 22.8571 20.5714 23.8786 20.5714 25.1429V29.7143C20.5714 30.9786 19.55 32 18.2857 32H13.7143C12.45 32 11.4286 30.9786 11.4286 29.7143V25.1429ZM6.85714 22.8571C8.12143 22.8571 9.14286 23.8786 9.14286 25.1429V29.7143C9.14286 30.9786 8.12143 32 6.85714 32H2.28571C1.02357 32 0 30.9786 0 29.7143V25.1429C0 23.8786 1.02357 22.8571 2.28571 22.8571H6.85714Z" fill="white"/>
</svg>
