<svg width="35" height="31" viewBox="0 0 35 31" fill="none" xmlns="http://www.w3.org/2000/svg">
<path d="M17.7977 15.4223L8.9919 0.0763591C8.97862 0.0530891 8.95951 0.0337766 8.9365 0.02037C8.91349 0.0069634 8.8874 -6.27436e-05 8.86085 4.22168e-07C8.8343 6.35879e-05 8.80824 0.00721383 8.78529 0.0207298C8.76234 0.0342457 8.74332 0.0536491 8.73015 0.076982L0.0204798 15.423C0.00706349 15.4465 0 15.4731 0 15.5003C0 15.5274 0.00706349 15.5541 0.0204798 15.5776L8.82633 30.9236C8.83961 30.9469 8.85872 30.9662 8.88174 30.9796C8.90475 30.993 8.93086 31.0001 8.95742 31C8.98398 30.9999 9.01006 30.9928 9.03301 30.9793C9.05596 30.9657 9.07499 30.9463 9.08815 30.923L17.798 15.577C17.8114 15.5534 17.8183 15.5268 17.8183 15.4996C17.8182 15.4725 17.8111 15.4458 17.7977 15.4223ZM20.4691 13.6431C20.4821 13.6664 20.501 13.6858 20.5238 13.6993C20.5466 13.7128 20.5725 13.7199 20.5989 13.72H25.1455C25.1721 13.7197 25.1981 13.7123 25.221 13.6987C25.2439 13.685 25.2628 13.6655 25.276 13.6421C25.2891 13.6187 25.2959 13.5923 25.2958 13.5654C25.2957 13.5385 25.2887 13.5121 25.2754 13.4888L17.7131 0.0771203C17.7001 0.0538287 17.6812 0.0344428 17.6584 0.0209383C17.6355 0.00743375 17.6096 0.000293335 17.5832 0.000244452H13.0367C13.0101 0.000564953 12.9841 0.00792252 12.9612 0.021585C12.9383 0.0352475 12.9194 0.0547385 12.9062 0.0781189C12.8931 0.101499 12.8862 0.127954 12.8863 0.15485C12.8864 0.181747 12.8935 0.208147 12.9068 0.231426L20.4691 13.6431ZM34.9798 15.4229L26.3117 0.0771895C26.2986 0.0538448 26.2796 0.0344303 26.2567 0.0209164C26.2337 0.00740251 26.2077 0.000270511 26.1811 0.000244452H21.6284C21.6018 0.00050008 21.5757 0.00780681 21.5528 0.0214364C21.5298 0.0350659 21.5108 0.0545423 21.4977 0.0779241C21.4845 0.101306 21.4776 0.127777 21.4776 0.154698C21.4777 0.181619 21.4848 0.20805 21.4981 0.231356L30.1229 15.5L21.4979 30.7686C21.4846 30.7919 21.4775 30.8183 21.4774 30.8452C21.4774 30.8722 21.4843 30.8986 21.4974 30.922C21.5106 30.9454 21.5296 30.9649 21.5526 30.9785C21.5755 30.9921 21.6016 30.9994 21.6282 30.9997H26.1809C26.2074 30.9996 26.2334 30.9925 26.2563 30.979C26.2792 30.9654 26.2981 30.9461 26.3112 30.9228L34.9798 15.5771C34.993 15.5536 35 15.527 35 15.5C35 15.4729 34.993 15.4464 34.9798 15.4229ZM25.0208 17.5009H20.4743C20.4479 17.5009 20.4219 17.5081 20.3991 17.5216C20.3763 17.5351 20.3574 17.5545 20.3444 17.5778L12.9069 30.7685C12.8936 30.7918 12.8865 30.8182 12.8864 30.8451C12.8863 30.872 12.8932 30.8984 12.9063 30.9218C12.9194 30.9452 12.9384 30.9647 12.9613 30.9784C12.9842 30.992 13.0102 30.9994 13.0368 30.9997H17.5833C17.6097 30.9996 17.6357 30.9925 17.6585 30.979C17.6813 30.9655 17.7002 30.9461 17.7132 30.9228L25.1508 17.7321C25.1641 17.7088 25.1711 17.6824 25.1712 17.6555C25.1713 17.6286 25.1645 17.6021 25.1513 17.5787C25.1382 17.5553 25.1192 17.5359 25.0963 17.5222C25.0734 17.5085 25.0474 17.5012 25.0208 17.5009Z" fill="white"/>
</svg>
